<svg version="1.1" xmlns="http://www.w3.org/2000/svg" viewBox="-413.32568176134276 -2857.8999999999996 3093.651363522686 3177.1"><desc>Created with Snap</desc><defs><linearGradient x1="-413.32568176134276" y1="-2857.8999999999996" x2="2680.3256817613433" y2="-2857.8999999999996" gradientUnits="userSpaceOnUse" id="linearGradientSkyiybsih6o8"><stop offset="0%" stop-color="#081c4f"></stop><stop offset="100%" stop-color="#157c79"></stop></linearGradient></defs><g><rect x="-413.32568176134276" y="-2857.8999999999996" width="3093.651363522686" height="3177.1" fill="url('#linearGradientSkyiybsih6o8')"></rect><g transform="matrix(29.7247,0,0,29.7247,-360.183,-3267.3337)"><path d="M54.042,24.109l37.912,21.888v8.756  L54.042,76.641v-8.755l30.331-17.511l-30.331-17.51V24.109z" fill="#ffffff" style=""></path><path d="M54.042,41.62l15.166,8.755l-15.166,8.755  V41.62z" fill="#ffffff" style=""></path><polygon points="46.459,24.109 8.547,45.997 8.547,54.752 38.876,37.243 38.876,72.263 46.459,76.641 " fill="#ffffff" style=""></polygon><polygon points="31.294,50.375 16.129,59.13 31.294,67.885 " fill="#ffffff" style=""></polygon><desc>Created with Snap</desc><defs></defs></g><g><g transform="matrix(1,0,0,-1,0,0)"><path d="M123 167L127 94Q127 88 126 72Q126 56 114 43Q103 31 86 31Q70 31 61 32Q28 32 28 61Q28 85 50 254Q72 424 78 473Q84 522 88 555Q93 589 95 605Q97 621 101 637Q105 653 113 663Q128 682 171 682Q243 646 319 478Q373 358 391 326Q409 294 426 282L626 630Q647 645 658 645Q690 645 707 616Q724 587 735 545Q747 504 755 454Q764 404 770 349Q777 295 783 243Q797 118 804 86Q812 54 812 40Q812 27 803 14Q794 2 778 2Q762 2 746 14Q730 27 726 45Q723 64 719 94Q716 124 711 161Q706 199 701 240Q696 282 691 320Q686 358 682 387Q678 417 676 432Q676 452 675 469Q674 486 667 490Q660 494 645 480Q631 467 605 426Q549 339 443 133Q429 108 406 122Q379 137 360 199L176 590Q152 542 132 272Q129 239 128 216Q123 191 123 167ZM941 -5L941 166Q885 174 885 192Q885 205 904 222Q923 239 942 257Q942 317 924 391Q906 466 898 507Q890 548 890 582Q890 616 900 625Q911 634 931 634Q951 634 957 628Q963 623 965 615Q967 607 967 598Q968 589 971 581Q976 562 1002 562Q1069 563 1136 573Q1203 584 1269 595Q1401 617 1454 617Q1508 617 1539 614Q1540 595 1543 581Q1546 567 1546 558Q1546 541 1513 546Q990 527 990 468Q990 403 999 356Q1008 310 1012 298Q1017 286 1023 286Q1080 286 1138 296Q1197 306 1255 317Q1314 329 1373 339Q1432 349 1489 349Q1490 349 1490 341Q1490 334 1489 325Q1486 301 1489 301Q1446 277 1333 262Q1284 255 1233 249Q1182 243 1139 236Q1040 222 1024 199L1013 3Q1002 -8 988 -8L951 -5Q946 -5 941 -5ZM1674 594Q1729 647 1873 647Q1963 647 2024 629Q2085 611 2115 591Q2146 571 2146 547Q2146 492 2018 438Q1999 429 1918 401Q1838 374 1810 364Q1749 341 1729 328Q1729 323 1733 319Q1737 316 1752 307Q1767 299 1797 283Q1827 268 1880 239Q2038 153 2205 55Q2213 49 2226 38Q2239 28 2239 15Q2239 3 2231 -2Q2223 -7 2212 -10Q2201 -12 2189 -12L2169 -12Q2149 -12 2085 31Q2022 74 1975 106Q1929 138 1881 168Q1768 241 1702 263L1702 34Q1702 14 1668 14L1657 14Q1636 14 1626 35Q1612 67 1612 153L1615 354Q1615 502 1602 614Q1626 655 1661 611Q1669 601 1674 594ZM2012 582L1947 583Q1721 583 1687 531Q1677 517 1677 495Q1677 474 1679 458Q1684 417 1702 399Q1705 398 1712 398Q1720 398 1740 402Q1761 406 1795 416Q1830 427 1869 442Q1908 457 1944 473Q2057 524 2057 556Q2057 574 2012 582Z" fill="#ffffff" style=""></path></g></g></g></svg>